# xmcd
#
# Track frame offsets:
# 150
# 15392
# 30732
# 52867
# 71340
# 86498
# 103237
# 119277
# 135211
# 155392
# 166869
# 182301
# 193386
# 204106
#
# Disc length: 2950 seconds
#
# Revision: 0
# Processed by: cddbd v1.5PL3 Copyright (c) Steve Scherf et al.
# Submitted via: Audion 3.0.2 (http://www.panic.com/audion/)
#
DISCID=a40b840e
DTITLE=Mixed 2 - Ljud CD #2
DYEAR=1900
DGENRE=
TTITLE0=Video Killed The Radio Star
TTITLE1=Words
TTITLE2=Africa
TTITLE3=Come On Eileen
TTITLE4=Dolce Vita
TTITLE5=Down Under
TTITLE6=Feels Like Heaven
TTITLE7=It's Raining Men
TTITLE8=Maneater
TTITLE9=Oh Julie
TTITLE10=Only You
TTITLE11=Surfin USA
TTITLE12=Surfin Bird
TTITLE13=The Riddle
EXTD=
EXTT0=
EXTT1=
EXTT2=
EXTT3=
EXTT4=
EXTT5=
EXTT6=
EXTT7=
EXTT8=
EXTT9=
EXTT10=
EXTT11=
EXTT12=
EXTT13=
PLAYORDER=
